<svg xmlns="http://www.w3.org/2000/svg" xmlns:xlink="http://www.w3.org/1999/xlink" viewBox="0 0 2622.88 473.25"><defs><style>.cls-1{fill:url(#linear-gradient);}.cls-2{fill:url(#linear-gradient-2);}.cls-3{fill:#fff;}.cls-4{fill:#fcd535;}</style><linearGradient id="linear-gradient" x1="211.42" y1="152.11" x2="211.42" y2="326.07" gradientUnits="userSpaceOnUse"><stop offset="0.13" stop-color="#f0b90b"/><stop offset="0.42" stop-color="#f0b90b"/><stop offset="0.52" stop-color="#f5c41c"/><stop offset="0.68" stop-color="#fcd535"/><stop offset="0.89" stop-color="#fcd535"/></linearGradient><linearGradient id="linear-gradient-2" y1="236.62" x2="421.6" y2="236.62" gradientUnits="userSpaceOnUse"><stop offset="0.13" stop-color="#efba1c"/><stop offset="0.42" stop-color="#efba1c"/><stop offset="0.43" stop-color="#f0bb1d"/><stop offset="0.68" stop-color="#fbd436"/><stop offset="0.89" stop-color="#fed535"/></linearGradient></defs><title>Asset 5</title><g id="Layer_2" data-name="Layer 2"><g id="Layer_1-2" data-name="Layer 1"><path class="cls-1" d="M286.78,237.1q14.3-10.44,14.29-32.06V193.11q0-20.62-10-30.82t-33.77-10.18H165.55c-2.32,0-4.5.09-6.62.23v-.23H120.6v174h38.33V326c.83,0,1.61.09,2.47.09h100q11.29,0,19.13-3a30.9,30.9,0,0,0,12.68-8.57A33,33,0,0,0,300.15,301a71.05,71.05,0,0,0,2.08-17.89V268.66Q302.23,246.55,286.78,237.1ZM158.35,184.91H250.6q9.21,0,13.14,4.1t3.91,11.81V210q0,7.22-4,11.06t-15.56,3.85H246v.18H158.35ZM268.12,278.1q0,8-4,11.56t-13.25,3.6H172c-.66,0-1.3,0-1.92-.05H158.35v-41.7h89.71q11.52,0,15.79,4t4.27,11.68Z"/><path class="cls-2" d="M398.9,323.37V252.91a11.15,11.15,0,0,0,0-20.24V153.26a22.68,22.68,0,1,0-23.35-33.07l-64.7-34.78-11-5.89A11.14,11.14,0,0,0,289.1,65.46a11.53,11.53,0,0,0-2.58.31,11.09,11.09,0,0,0-5.77,3.47L224.34,38.93A26.68,26.68,0,0,0,200.62,0a26.69,26.69,0,0,0-24.48,37.37L123.91,70.22a11.17,11.17,0,0,0-17.49,9.2,12.09,12.09,0,0,0,.14,1.72l-61.95,39A24,24,0,1,0,22.7,159.78v64.66a11.16,11.16,0,0,0,0,21.22v71a26.69,26.69,0,1,0,22.77,45.36l49.86,30.63c0,.41-.07.83-.07,1.26a12.08,12.08,0,0,0,18.65,10.15l63.49,39a24,24,0,1,0,47.25,6.13,24.16,24.16,0,0,0-.44-4.53l74.73-39.58a11.16,11.16,0,0,0,19.35-7.58A10.85,10.85,0,0,0,318,395l55.47-29.39a26.68,26.68,0,1,0,25.44-42.25ZM281.67,85a11.13,11.13,0,0,0,13.14,1.26h0l.78-.42,5.95,3.31h0l61.8,33.39L243.77,113.2a16.55,16.55,0,0,0-1.78-6.3ZM220,45l58,31.32c0,.09,0,.18,0,.27a11.07,11.07,0,0,0,1.25,5.12l-39.46,21.82a16.35,16.35,0,0,0-12.41-5.74c-.62,0-1.23,0-1.84.1l-14.25-46.8A26.88,26.88,0,0,0,220,45ZM128.75,79.42a11,11,0,0,0-.31-2.58l52-32.7a26.58,26.58,0,0,0,5.86,5.07l-40.6,59.86a16.46,16.46,0,0,0-9.31-2.87,16.24,16.24,0,0,0-4.27.58l-8-18.31A11.14,11.14,0,0,0,128.75,79.42Zm-18.2,8.67a11.13,11.13,0,0,0,7,2.5,11.3,11.3,0,0,0,2.19-.22l8,18.27A15.77,15.77,0,0,0,120,125.11l-70.62,3.18c-.17-.47-.33-.95-.52-1.41ZM30.71,159.78a24,24,0,0,0,14.43-8.27l31.79,51.84a20.47,20.47,0,0,0-9.87,17.49,21.66,21.66,0,0,0,.14,2.29l-30.93,7.15a11.26,11.26,0,0,0-5.56-5.43Zm0,156.91V245.24a11.15,11.15,0,0,0,6.62-10.19c0-.05,0-.1,0-.15l31-7.16a20.6,20.6,0,0,0,7.41,9.79L37.37,318.59A26.15,26.15,0,0,0,30.71,316.69Zm150,119-61.88-38a12.06,12.06,0,0,0-3-12.38l24.51-37.26a16.6,16.6,0,0,0,6.69,1.42,16.41,16.41,0,0,0,4-.54l37.54,79.48A24.19,24.19,0,0,0,180.72,435.73Zm35.09-5.13a23.72,23.72,0,0,0-5.29-3.27h0c-.13-.07-.27-.12-.4-.18l-.08,0a22,22,0,0,0-3-1l-.9-.23h0a25.76,25.76,0,0,0-8.85-.35H197a22.42,22.42,0,0,0-2.49.52c-.33.08-.51.14-.51.14h0c-.6.17-1.2.36-1.78.58l-37.43-79.23a16.28,16.28,0,0,0,6-5.56L256.59,380Zm80.15-33-74.6,39.51a23.92,23.92,0,0,0-2.67-3.71l41.79-51.88,35.63,14.16a11,11,0,0,0-.16,1.83S296,397.58,296,397.61Zm17.51-9.27a11.15,11.15,0,0,0-15.62,3l-34.26-13.61,12.53-15.55a17.22,17.22,0,0,0,2.61.26,16.55,16.55,0,0,0,16.34-14l73.15,2.19a26.68,26.68,0,0,0,1.49,8Zm55-42.5-73.34-2.19a16.82,16.82,0,0,0-1.27-4.53c0-.05-.05-.09-.07-.14s-.11-.22-.16-.34a9.85,9.85,0,0,0-3-3.68c-1.17.58-2.39,1.12-3.66,1.61-6.59,2.5-14.53,3.78-23.61,3.78h-.25a16.25,16.25,0,0,0-.95,5.47,14.69,14.69,0,0,0,.25,2.41,20.85,20.85,0,0,0,1.46,4.89h.06a16.59,16.59,0,0,0,8,7.78l-12.27,15.22-90.06-35.78h-11.4c-9.26,0-17.25-1.28-23.77-3.8-1.35-.52-2.61-1.13-3.87-1.75a16.59,16.59,0,0,0,5.76,10.76L111.9,382.73a12.07,12.07,0,0,0-13.11,2.67L50.28,355.6a26.6,26.6,0,0,0,.27-24.52l55.54-35.16c-.19-1.73-.34-3.51-.43-5.32l-57.6,36.46a27,27,0,0,0-7.15-6.58l38.27-80.94a19.92,19.92,0,0,0,17.37-.25l9.88,19.77a51.32,51.32,0,0,1,1.47-6L100,237.19a20.34,20.34,0,0,0,7.54-11.49,23.24,23.24,0,0,0,.42-7.52h0a20.28,20.28,0,0,0-4.46-10.33l3.32-2.43c0-.71-.07-1.4-.07-2.12v-2.8L100.6,205a20,20,0,0,0-20-3.39L47.63,147.9a23.93,23.93,0,0,0,3.11-11.8,23.14,23.14,0,0,0-.34-3.84h.28l70.38-3.18a16.27,16.27,0,0,0,19.57,9.64l.8,1.4c1.33-.32,2.69-.62,4.12-.87l-1.18-2.06a16.45,16.45,0,0,0,8.46-13.43,34.71,34.71,0,0,0-.6-5.56,16.76,16.76,0,0,0-3.55-6.41l41.14-60.66a26.61,26.61,0,0,0,8.79,2.19l4.78-.1c.25,0,.48-.07.72-.1l14.4,47.28a16.58,16.58,0,0,0-7.68,13.22l.3,4a17.11,17.11,0,0,0,1.89,5l-14.41,10.56h0l-6.34,4.65H199l3.58-2.62,12.78-9.37a16.39,16.39,0,0,0,10.8,5l1.77,7h4.14l-1.82-7.18a16.36,16.36,0,0,0,5.7-2.23l8.63,9.41h5.44l-10.92-11.9a16.39,16.39,0,0,0,4.42-8.35l129.56,10.19-1.14-.62h0l1.14.62a22,22,0,0,0-.24,3.06,22.81,22.81,0,0,0,.71,5.58l-61.37,34.16c.38,1.3.73,2.64,1,4l61.7-34.33a22.84,22.84,0,0,0,8.09,9.5l-38.3,75.33a14.77,14.77,0,0,0-13,1.74l-17-18.55c-.12,1.81-.33,3.56-.59,5.28l14.6,15.91a14.86,14.86,0,0,0-3.64,13.17l-12.63,6.72A46.64,46.64,0,0,1,314,253.9l12.75-6.79A15.6,15.6,0,0,0,331,252l-15,29.42v3.88c0,1.79-.05,3.53-.14,5.25L334.55,254a15.23,15.23,0,0,0,5.58,1.08,15.45,15.45,0,0,0,5-.9L379.4,328A26.73,26.73,0,0,0,368.48,345.84Zm22.41-22.47a26.44,26.44,0,0,0-8,2.56l-34.09-73.54a15.35,15.35,0,0,0,6.74-12.69l27.67,1.41a11.66,11.66,0,0,0-.14,1.68,11.17,11.17,0,0,0,7.86,10.67Zm0-91.25a11.18,11.18,0,0,0-5.86,4.34l-30.31-1.53a15.43,15.43,0,0,0-6.34-8.19l38.17-75.08a22,22,0,0,0,4.34,1.38Z"/><path class="cls-3" d="M837.19,302.27c.56,44.11-36.59,67.75-80,67.75H498.83V117.8H738.66c43.73-.19,80.7,23.64,80.14,67.56,0,24.21-11.26,42.79-29.28,54.23C818.05,248.79,837.19,270.56,837.19,302.27Zm-240-124.61v34H711.08c8.44,0,15.39-8.63,15.39-17.08s-7-16.89-15.39-16.89ZM729.47,310c8.44,0,15.39-8.45,15.39-16.89s-7-16.89-15.39-16.89H597.16V310Z"/><path class="cls-3" d="M961.81,117.42V369.65H863.47V117.42Z"/><path class="cls-4" d="M1014,117.42h123.11l98.34,126.11L1334,117.42h122.92V369.65h-98.34V235.09L1260,369.65h-49.16l-98.53-134.56V369.65H1014Z"/><path class="cls-4" d="M1599.7,117.8h116.92L1851.93,370H1741.2l-19.89-43.16H1595L1575.12,370H1464.39Zm23.83,147.5h69.25l-34.53-74.5Z"/><path class="cls-4" d="M1903.54,370V197.74H1786.62V117.8H2118.8v79.94H2001.88V370Z"/><path class="cls-4" d="M2250,117.42V369.65h-98.34V117.42Z"/><path class="cls-4" d="M2622.88,265.12c-6.19,85.2-80.89,110.72-171.72,110.72-94.58-.19-172.65-27.59-172.28-123.11V234.34c-.37-95.34,77.7-122.74,172.28-123.11,90.83.19,165.53,25.71,171.72,110.72H2522.1c-9.19-24.77-37.16-30.59-70.94-30.59-40.16.57-74.31,7.7-73.75,49.17v6.19c-.56,41.1,33.59,48.61,73.75,49.17,33.78,0,61.93-6,70.94-30.77Z"/></g></g></svg>