<?xml version="1.0" encoding="utf-8"?>
<!-- Generator: Adobe Illustrator 25.2.3, SVG Export Plug-In . SVG Version: 6.00 Build 0)  -->
<svg version="1.1" id="Layer_1" xmlns="http://www.w3.org/2000/svg" xmlns:xlink="http://www.w3.org/1999/xlink" x="0px" y="0px"
	 viewBox="0 0 344.6 65.9" style="enable-background:new 0 0 344.6 65.9;" xml:space="preserve">
<style type="text/css">
	.st0{fill:url(#Path_67102_1_);}
	.st1{fill:url(#Path_67103_1_);stroke:#FFE1B0;}
	.st2{fill:url(#Path_67102-2_1_);}
	.st3{fill:url(#Path_67103-2_1_);stroke:#FFE1B0;}
	.st4{fill:url(#Path_67104_1_);}
	.st5{fill:url(#Path_67105_1_);stroke:#FFE1B0;}
	.st6{fill:url(#Path_67104-2_1_);}
	.st7{fill:url(#Path_67105-2_1_);stroke:#FFE1B0;}
	.st8{fill:#292929;stroke:#FFE1B0;stroke-width:3;}
	.st9{enable-background:new    ;}
	.st10{fill:#E9D2A8;}
</style>
<g id="Group_22196" transform="translate(-540.21 -1525.068)">
	<g id="download" transform="translate(540.818 1526.568)">
		<g id="Group_22117" transform="translate(32.771 31.345) rotate(180)">
			
				<linearGradient id="Path_67102_1_" gradientUnits="userSpaceOnUse" x1="169.4578" y1="-418.3975" x2="168.5798" y2="-418.6515" gradientTransform="matrix(-32.77 0 0 16.5 5585.2388 6915.0576)">
				<stop  offset="0" style="stop-color:#E7C187"/>
				<stop  offset="1" style="stop-color:#CF9B46"/>
			</linearGradient>
			<path id="Path_67102" class="st0" d="M0,16.5h32.8l-1.2-5.9C30.4,4.5,25,0,18.7,0H0V16.5z"/>
			
				<linearGradient id="Path_67103_1_" gradientUnits="userSpaceOnUse" x1="169.9376" y1="-419.5994" x2="169.9376" y2="-418.0944" gradientTransform="matrix(-32.77 0 0 16.5 5585.2388 6915.0576)">
				<stop  offset="0" style="stop-color:#FFE1B0"/>
				<stop  offset="1" style="stop-color:#BE9448"/>
			</linearGradient>
			<path id="Path_67103" class="st1" d="M0,16.5h32.8l-1.2-5.9C30.4,4.5,25,0,18.7,0H0V16.5z"/>
		</g>
		<g id="Group_22119" transform="translate(310.594 14.843)">
			
				<linearGradient id="Path_67102-2_1_" gradientUnits="userSpaceOnUse" x1="-439.1636" y1="391.4145" x2="-440.0416" y2="391.1605" gradientTransform="matrix(32.77 0 0 -16.5 14423.499 6463.3403)">
				<stop  offset="0" style="stop-color:#E7C187"/>
				<stop  offset="1" style="stop-color:#CF9B46"/>
			</linearGradient>
			<path id="Path_67102-2" class="st2" d="M0,0h32.8l-1.2,5.9C30.4,12,25,16.5,18.7,16.5H0V0z"/>
			
				<linearGradient id="Path_67103-2_1_" gradientUnits="userSpaceOnUse" x1="-439.6434" y1="390.2126" x2="-439.6434" y2="391.7176" gradientTransform="matrix(32.77 0 0 -16.5 14423.499 6463.3403)">
				<stop  offset="0" style="stop-color:#FFE1B0"/>
				<stop  offset="1" style="stop-color:#BE9448"/>
			</linearGradient>
			<path id="Path_67103-2" class="st3" d="M0,0h32.8l-1.2,5.9C30.4,12,25,16.5,18.7,16.5H0V0z"/>
		</g>
		<g id="Group_22118" transform="translate(29.802 48.003) rotate(180)">
			
				<linearGradient id="Path_67104_1_" gradientUnits="userSpaceOnUse" x1="167.6187" y1="-401.6384" x2="166.7407" y2="-402.0484" gradientTransform="matrix(-25.749 0 0 16.5 4340.6436 6640.2007)">
				<stop  offset="0" style="stop-color:#E7C187"/>
				<stop  offset="1" style="stop-color:#CF9B46"/>
			</linearGradient>
			<path id="Path_67104" class="st4" d="M2.3,16.5h23.4l-1.2-6.3C23.4,4.3,18.3,0,12.2,0H0L2.3,16.5z"/>
			
				<linearGradient id="Path_67105_1_" gradientUnits="userSpaceOnUse" x1="168.0752" y1="-402.9414" x2="168.0752" y2="-401.4364" gradientTransform="matrix(-25.749 0 0 16.5 4340.6436 6640.2007)">
				<stop  offset="0" style="stop-color:#FFE1B0"/>
				<stop  offset="1" style="stop-color:#BE9448"/>
			</linearGradient>
			<path id="Path_67105" class="st5" d="M2.3,16.5h23.4l-1.2-6.3C23.4,4.3,18.3,0,12.2,0H0L2.3,16.5z"/>
		</g>
		<g id="Group_22120" transform="translate(313.563 31.501)">
			
				<linearGradient id="Path_67104-2_1_" gradientUnits="userSpaceOnUse" x1="-441.049" y1="374.8576" x2="-441.9269" y2="374.4476" gradientTransform="matrix(25.748 0 0 -16.5 11380.7578 6188.4834)">
				<stop  offset="0" style="stop-color:#E7C187"/>
				<stop  offset="1" style="stop-color:#CF9B46"/>
			</linearGradient>
			<path id="Path_67104-2" class="st6" d="M2.3,0h23.4l-1.2,6.3c-1.1,5.9-6.3,10.2-12.4,10.2H0L2.3,0z"/>
			
				<linearGradient id="Path_67105-2_1_" gradientUnits="userSpaceOnUse" x1="-441.5055" y1="373.5546" x2="-441.5055" y2="375.0596" gradientTransform="matrix(25.748 0 0 -16.5 11380.7578 6188.4834)">
				<stop  offset="0" style="stop-color:#FFE1B0"/>
				<stop  offset="1" style="stop-color:#BE9448"/>
			</linearGradient>
			<path id="Path_67105-2" class="st7" d="M2.3,0h23.4l-1.2,6.3c-1.1,5.9-6.3,10.2-12.4,10.2H0L2.3,0z"/>
		</g>
		<path id="Rectangle_5718" class="st8" d="M49.3,0h239c17.1,0,31,13.9,31,31v0.9c0,17.1-13.9,31-31,31h-239c-17.1,0-31-13.9-31-31
			V31C18.3,13.9,32.2,0,49.3,0z"/>
	</g>
	<g id="Group_22121" transform="translate(608.837 1549.51)">
		<g class="st9">
			<path d="M-11,15c0-0.2,0.1-0.7,0.1-0.9l1.8-7.9h3.5L-7.3,14c0,0.1-0.1,0.3-0.1,0.6c0,1.1,0.9,2.2,2.6,2.2c1.8,0,2.8-1.2,3.1-2.7
				L0,6.1h3.5l-1.7,7.9c-0.7,3.2-2.5,5.7-6.6,5.7C-8.9,19.7-11,17.8-11,15z"/>
			<path d="M6.6,18.3l-1.1,4.8H2.4l3-13.3h3.1l-0.3,1.1c0.8-1,1.7-1.4,2.8-1.4c2.2,0,3.6,1.4,3.6,4c0,2.8-1.7,6.1-5.1,6.1
				C8.3,19.7,7.2,19.3,6.6,18.3z M11.4,14.2c0-1.2-0.8-1.9-1.9-1.9c-0.7,0-1.4,0.4-1.8,0.9l-0.6,2.9C7.5,16.6,8.2,17,9,17
				C10.4,17,11.4,15.7,11.4,14.2z"/>
			<path d="M14.8,21.7l1.7-2c0.6,0.8,1.9,1.2,3,1.2c1,0,2.1-0.4,2.5-2.3l0.2-0.7c-0.7,0.9-1.7,1.4-2.8,1.4c-1.9,0-3.7-1.1-3.7-3.9
				c0-2.9,1.9-5.8,5-5.8c1.1,0,2.3,0.5,3,1.4L24,9.8h3.1l-2,8.8c-0.9,3.9-3.4,4.7-5.5,4.7C17.7,23.4,16,22.9,14.8,21.7z M22.7,15.7
				l0.5-2.4c-0.4-0.6-1.1-1-2-1c-1.3,0-2.2,1-2.2,2.5c0,1,0.8,1.8,1.9,1.8C21.6,16.6,22.3,16.2,22.7,15.7z"/>
			<path d="M27.6,19.5l2.1-9.7h3.1L32.6,11c0.8-0.8,1.9-1.4,3.3-1.4l-0.7,3c-0.2,0-0.6-0.1-1-0.1c-0.8,0-1.7,0.4-2.2,1l-1.3,6.1
				H27.6z"/>
			<path d="M43.9,11l0.3-1.1h3.1L45,19.5H42l0.3-1.1c-0.8,0.9-1.7,1.4-2.8,1.4c-2.2,0-3.6-1.4-3.6-4c0-2.8,1.7-6.1,5.1-6.1
				C42.1,9.6,43.2,10.1,43.9,11z M39,15.1c0,1.2,0.8,1.9,1.9,1.9c0.7,0,1.4-0.4,1.8-0.9l0.7-2.9c-0.4-0.5-1.1-0.9-1.9-0.9
				C40,12.3,39,13.6,39,15.1z"/>
			<path d="M56.1,11l1.1-4.8h3.1l-3,13.3h-3.1l0.3-1.1c-0.8,0.9-1.7,1.4-2.8,1.4c-2.2,0-3.6-1.4-3.6-4c0-2.8,1.7-6.1,5.1-6.1
				C54.3,9.6,55.4,10.1,56.1,11z M51.2,15.1c0,1.2,0.8,1.9,1.9,1.9c0.7,0,1.4-0.4,1.8-0.9l0.7-2.9c-0.4-0.5-1.1-0.9-1.9-0.9
				C52.2,12.3,51.2,13.6,51.2,15.1z"/>
			<path d="M60.3,15.3c0-3.1,2.4-5.8,5.7-5.8c2.4,0,4.4,1.5,4.4,4.4c0,0.6-0.1,1.4-0.2,1.7h-6.8c0,0,0,0.1,0,0.1
				c0,0.5,0.8,1.4,2.4,1.4c0.8,0,1.7-0.2,2.3-0.6l0.9,2.1c-0.9,0.6-2.3,0.9-3.4,0.9C62.3,19.7,60.3,18.1,60.3,15.3z M67.6,13.4
				c0-0.6-0.6-1.4-1.9-1.4c-1.2,0-1.9,0.8-2.1,1.5h4V13.4z"/>
			<path d="M86,19.5l-0.2-1.9h-5.3l-1.1,1.9h-4.1l8-13.3h4.3l2.1,13.3H86z M84.9,9.5l-2.8,5h3.4L84.9,9.5z"/>
			<path d="M97.6,19.5l1.2-5.6c0-0.2,0.1-0.4,0.1-0.5c0-0.8-0.6-1.1-1.5-1.1c-0.8,0-1.4,0.5-1.9,0.9l-1.4,6.2H91l2.1-9.7h3.1L96,11
				c0.7-0.7,1.7-1.4,3.1-1.4c1.9,0,3.1,1,3.1,2.5c0,0.2-0.1,0.6-0.1,0.8l-1.5,6.6H97.6z"/>
			<path d="M102.6,21.7l1.7-2c0.6,0.8,1.9,1.2,3,1.2c1,0,2.1-0.4,2.5-2.3l0.2-0.7c-0.7,0.9-1.7,1.4-2.8,1.4c-1.9,0-3.7-1.1-3.7-3.9
				c0-2.9,1.9-5.8,5-5.8c1.1,0,2.3,0.5,3,1.4l0.3-1.1h3.1l-2,8.8c-0.9,3.9-3.4,4.7-5.5,4.7C105.5,23.4,103.9,22.9,102.6,21.7z
				 M110.6,15.7l0.5-2.4c-0.4-0.6-1.1-1-2-1c-1.3,0-2.2,1-2.2,2.5c0,1,0.8,1.8,1.9,1.8C109.5,16.6,110.1,16.2,110.6,15.7z"/>
			<path d="M115.8,15.3c0-3.1,2.4-5.8,5.7-5.8c2.4,0,4.4,1.5,4.4,4.4c0,0.6-0.1,1.4-0.2,1.7h-6.8c0,0,0,0.1,0,0.1
				c0,0.5,0.8,1.4,2.4,1.4c0.8,0,1.7-0.2,2.3-0.6l0.9,2.1c-0.9,0.6-2.3,0.9-3.4,0.9C117.9,19.7,115.8,18.1,115.8,15.3z M123.2,13.4
				c0-0.6-0.6-1.4-1.9-1.4c-1.2,0-1.9,0.8-2.1,1.5h4V13.4z"/>
			<path d="M133.3,19.5l1.2-5.6c0-0.2,0.1-0.4,0.1-0.5c0-0.8-0.6-1.1-1.5-1.1c-0.8,0-1.4,0.5-1.9,0.9l-1.4,6.2h-3.1l2.1-9.7h3.1
				l-0.3,1.2c0.7-0.7,1.7-1.4,3.1-1.4c1.9,0,3.1,1,3.1,2.5c0,0.2-0.1,0.6-0.1,0.8l-1.5,6.6H133.3z"/>
			<path d="M139.4,15.3c0-3.2,2.5-5.7,5.7-5.7c2.1,0,3.4,0.9,4.1,2l-2.3,1.7c-0.3-0.6-1-1-1.8-1c-1.5,0-2.6,1.2-2.6,2.8
				c0,1.2,1,1.9,2.1,1.9c0.7,0,1.4-0.4,1.8-0.9l1.7,2c-0.7,0.7-2,1.6-3.8,1.6C141.3,19.7,139.4,17.9,139.4,15.3z"/>
			<path d="M149.4,20.5c0.2,0.1,0.6,0.1,1,0.1c0.5,0,0.8-0.1,1.1-0.5l0.4-0.6l-1.7-9.7h3.2l0.8,6.1l3.6-6.1h3.3l-6.8,11
				c-1.2,1.9-2.3,2.5-4.1,2.5c-0.6,0-1.3-0.1-1.8-0.2L149.4,20.5z"/>
			<path d="M173.4,19.5l-1.2-4.5h-1.9l-1,4.5h-3.4l2.9-13.3h6.1c2.3,0,4.3,1.5,4.3,3.9c0,2.4-1.6,4.2-3.6,4.7l1.6,4.7H173.4z
				 M173.7,12c1.2,0,1.9-0.6,1.9-1.6c0-0.7-0.7-1.3-1.4-1.3h-2.6L171,12H173.7L173.7,12z"/>
			<path d="M187.2,11l0.3-1.1h3.1l-2.1,9.7h-3.1l0.3-1.1c-0.8,0.9-1.7,1.4-2.8,1.4c-2.2,0-3.6-1.4-3.6-4c0-2.8,1.7-6.1,5.1-6.1
				C185.4,9.6,186.5,10.1,187.2,11z M182.3,15.1c0,1.2,0.8,1.9,1.9,1.9c0.7,0,1.4-0.4,1.8-0.9l0.7-2.9c-0.4-0.5-1.1-0.9-1.9-0.9
				C183.3,12.3,182.3,13.6,182.3,15.1z"/>
			<path d="M197.5,19.5l1.2-5.6c0-0.2,0.1-0.4,0.1-0.5c0-0.8-0.6-1.1-1.5-1.1c-0.8,0-1.4,0.5-1.9,0.9l-1.4,6.2H191l2.1-9.7h3.1
				l-0.3,1.2c0.7-0.7,1.7-1.4,3.1-1.4c1.9,0,3.1,1,3.1,2.5c0,0.2-0.1,0.6-0.1,0.8l-1.5,6.6H197.5z"/>
			<path d="M209.4,19.5L208,16l-1.2,1.2l-0.5,2.3h-3.1l2.9-13.3h3.1l-1.6,7.4l3.7-3.7h3.8l-4.5,4.4l2.6,5.3H209.4z"/>
		</g>
		<g class="st9">
			<path class="st10" d="M-11.1,11c0-0.2,0.1-0.7,0.1-0.9l1.8-7.9h3.5L-7.5,10c0,0.1-0.1,0.3-0.1,0.6c0,1.1,0.9,2.2,2.6,2.2
				c1.8,0,2.8-1.2,3.1-2.7l1.7-7.9h3.5l-1.7,7.9c-0.7,3.2-2.5,5.7-6.6,5.7C-9.1,15.7-11.1,13.8-11.1,11z"/>
			<path class="st10" d="M6.4,14.3l-1.1,4.8H2.3l3-13.3h3.1L8,6.9c0.8-1,1.7-1.4,2.8-1.4c2.2,0,3.6,1.4,3.6,4c0,2.8-1.7,6.1-5.1,6.1
				C8.1,15.7,7,15.3,6.4,14.3z M11.3,10.2c0-1.2-0.8-1.9-1.9-1.9C8.7,8.3,8,8.7,7.5,9.2l-0.6,2.9C7.3,12.6,8,13,8.8,13
				C10.2,13,11.3,11.7,11.3,10.2z"/>
			<path class="st10" d="M14.6,17.7l1.7-2c0.6,0.8,1.9,1.2,3,1.2c1,0,2.1-0.4,2.5-2.3l0.2-0.7c-0.7,0.9-1.7,1.4-2.8,1.4
				c-1.9,0-3.7-1.1-3.7-3.9c0-2.9,1.9-5.8,5-5.8c1.1,0,2.3,0.5,3,1.4l0.3-1.1h3.1l-2,8.8c-0.9,3.9-3.4,4.7-5.5,4.7
				C17.5,19.4,15.8,18.9,14.6,17.7z M22.5,11.7l0.5-2.4c-0.4-0.6-1.1-1-2-1c-1.3,0-2.2,1-2.2,2.5c0,1,0.8,1.8,1.9,1.8
				C21.4,12.6,22.1,12.2,22.5,11.7z"/>
			<path class="st10" d="M27.4,15.5l2.1-9.7h3.1L32.4,7c0.8-0.8,1.9-1.4,3.3-1.4l-0.7,3c-0.2,0-0.6-0.1-1-0.1c-0.8,0-1.7,0.4-2.2,1
				l-1.3,6.1H27.4z"/>
			<path class="st10" d="M43.7,7l0.3-1.1H47l-2.1,9.7h-3.1l0.3-1.1c-0.8,0.9-1.7,1.4-2.8,1.4c-2.2,0-3.6-1.4-3.6-4
				c0-2.8,1.7-6.1,5.1-6.1C41.9,5.6,43.1,6.1,43.7,7z M38.8,11.1c0,1.2,0.8,1.9,1.9,1.9c0.7,0,1.4-0.4,1.8-0.9l0.7-2.9
				c-0.4-0.5-1.1-0.9-1.9-0.9C39.9,8.3,38.8,9.6,38.8,11.1z"/>
			<path class="st10" d="M55.9,7L57,2.1H60l-3,13.3H54l0.3-1.1c-0.8,0.9-1.7,1.4-2.8,1.4c-2.2,0-3.6-1.4-3.6-4
				c0-2.8,1.7-6.1,5.1-6.1C54.1,5.6,55.3,6.1,55.9,7z M51,11.1c0,1.2,0.8,1.9,1.9,1.9c0.7,0,1.4-0.4,1.8-0.9l0.7-2.9
				c-0.4-0.5-1.1-0.9-1.9-0.9C52.1,8.3,51,9.6,51,11.1z"/>
			<path class="st10" d="M60.1,11.3c0-3.1,2.4-5.8,5.7-5.8c2.4,0,4.4,1.5,4.4,4.4c0,0.6-0.1,1.4-0.2,1.7h-6.8c0,0,0,0.1,0,0.1
				c0,0.5,0.8,1.4,2.4,1.4c0.8,0,1.7-0.2,2.3-0.6l0.9,2.1c-0.9,0.6-2.3,0.9-3.4,0.9C62.2,15.7,60.1,14.1,60.1,11.3z M67.5,9.5
				c0-0.6-0.6-1.4-1.9-1.4c-1.2,0-1.9,0.8-2.1,1.5h4V9.5z"/>
			<path class="st10" d="M85.8,15.5l-0.2-1.9h-5.3l-1.1,1.9h-4.1l8-13.3h4.3l2.1,13.3H85.8z M84.7,5.5l-2.8,5h3.4L84.7,5.5z"/>
			<path class="st10" d="M97.4,15.5l1.2-5.6c0-0.2,0.1-0.4,0.1-0.5c0-0.8-0.6-1.1-1.5-1.1c-0.8,0-1.4,0.5-1.9,0.9l-1.4,6.2h-3.1
				L93,5.8h3.1L95.8,7c0.7-0.7,1.7-1.4,3.1-1.4c1.9,0,3.1,1,3.1,2.5c0,0.2-0.1,0.6-0.1,0.8l-1.5,6.6H97.4z"/>
			<path class="st10" d="M102.5,17.7l1.7-2c0.6,0.8,1.9,1.2,3,1.2c1,0,2.1-0.4,2.5-2.3l0.2-0.7c-0.7,0.9-1.7,1.4-2.8,1.4
				c-1.9,0-3.7-1.1-3.7-3.9c0-2.9,1.9-5.8,5-5.8c1.1,0,2.3,0.5,3,1.4l0.3-1.1h3.1l-2,8.8c-0.9,3.9-3.4,4.7-5.5,4.7
				C105.4,19.4,103.7,18.9,102.5,17.7z M110.4,11.7l0.5-2.4c-0.4-0.6-1.1-1-2-1c-1.3,0-2.2,1-2.2,2.5c0,1,0.8,1.8,1.9,1.8
				C109.3,12.6,109.9,12.2,110.4,11.7z"/>
			<path class="st10" d="M115.7,11.3c0-3.1,2.4-5.8,5.7-5.8c2.4,0,4.4,1.5,4.4,4.4c0,0.6-0.1,1.4-0.2,1.7h-6.8c0,0,0,0.1,0,0.1
				c0,0.5,0.8,1.4,2.4,1.4c0.8,0,1.7-0.2,2.3-0.6l0.9,2.1c-0.9,0.6-2.3,0.9-3.4,0.9C117.7,15.7,115.7,14.1,115.7,11.3z M123,9.5
				c0-0.6-0.6-1.4-1.9-1.4c-1.2,0-1.9,0.8-2.1,1.5h4V9.5z"/>
			<path class="st10" d="M133.2,15.5l1.2-5.6c0-0.2,0.1-0.4,0.1-0.5c0-0.8-0.6-1.1-1.5-1.1c-0.8,0-1.4,0.5-1.9,0.9l-1.4,6.2h-3.1
				l2.1-9.7h3.1L131.6,7c0.7-0.7,1.7-1.4,3.1-1.4c1.9,0,3.1,1,3.1,2.5c0,0.2-0.1,0.6-0.1,0.8l-1.5,6.6H133.2z"/>
			<path class="st10" d="M139.2,11.3c0-3.2,2.5-5.7,5.7-5.7c2.1,0,3.4,0.9,4.1,2l-2.3,1.7c-0.3-0.6-1-1-1.8-1
				c-1.5,0-2.6,1.2-2.6,2.8c0,1.2,1,1.9,2.1,1.9c0.7,0,1.4-0.4,1.8-0.9l1.7,2c-0.7,0.7-2,1.6-3.8,1.6
				C141.1,15.7,139.2,13.9,139.2,11.3z"/>
			<path class="st10" d="M149.2,16.5c0.2,0.1,0.6,0.1,1,0.1c0.5,0,0.8-0.1,1.1-0.5l0.4-0.6l-1.7-9.7h3.2l0.8,6.1l3.6-6.1h3.3
				l-6.8,11c-1.2,1.9-2.3,2.5-4.1,2.5c-0.6,0-1.3-0.1-1.8-0.2L149.2,16.5z"/>
			<path class="st10" d="M173.3,15.5L172,11h-1.9l-1,4.5h-3.4l2.9-13.3h6.1c2.3,0,4.3,1.5,4.3,3.9c0,2.4-1.6,4.2-3.6,4.7l1.6,4.7
				H173.3z M173.5,8c1.2,0,1.9-0.6,1.9-1.6c0-0.7-0.7-1.3-1.4-1.3h-2.6L170.8,8H173.5L173.5,8z"/>
			<path class="st10" d="M187,7l0.3-1.1h3.1l-2.1,9.7h-3.1l0.3-1.1c-0.8,0.9-1.7,1.4-2.8,1.4c-2.2,0-3.6-1.4-3.6-4
				c0-2.8,1.7-6.1,5.1-6.1C185.2,5.6,186.4,6.1,187,7z M182.1,11.1c0,1.2,0.8,1.9,1.9,1.9c0.7,0,1.4-0.4,1.8-0.9l0.7-2.9
				c-0.4-0.5-1.1-0.9-1.9-0.9C183.2,8.3,182.1,9.6,182.1,11.1z"/>
			<path class="st10" d="M197.3,15.5l1.2-5.6c0-0.2,0.1-0.4,0.1-0.5c0-0.8-0.6-1.1-1.5-1.1c-0.8,0-1.4,0.5-1.9,0.9l-1.4,6.2h-3.1
				l2.1-9.7h3.1L195.7,7c0.7-0.7,1.7-1.4,3.1-1.4c1.9,0,3.1,1,3.1,2.5c0,0.2-0.1,0.6-0.1,0.8l-1.5,6.6H197.3z"/>
			<path class="st10" d="M209.3,15.5l-1.4-3.5l-1.2,1.2l-0.5,2.3H203L206,2.1h3.1l-1.6,7.4l3.7-3.7h3.8l-4.5,4.4l2.6,5.3H209.3z"/>
		</g>
	</g>
</g>
</svg>
