<svg xmlns="http://www.w3.org/2000/svg" width="119.26" height="133.819" viewBox="0 0 119.26 133.819">
  <g id="money" transform="translate(-16.998 0.001)">
    <path id="Path_31722" data-name="Path 31722" d="M70.628,22a59.631,59.631,0,0,0-37.986,105.6,2.958,2.958,0,0,1,2.737-1.86h70.5a2.958,2.958,0,0,1,2.737,1.86A59.631,59.631,0,0,0,70.628,22Z" transform="translate(6 -7.447)" fill="#ff4155"/>
    <g id="Group_14995" data-name="Group 14995" transform="translate(38.934 -0.001)">
      <path id="Path_31723" data-name="Path 31723" d="M125.381,79.283a6.449,6.449,0,0,1,1.919,2.6h60A9.357,9.357,0,0,1,181.665,67.2c5.5-7.962,8.355-17.924,1.392-23.993-4.089-3.564-5.714-6.841-6.357-8.764a.57.57,0,0,0-1.1.071c-1.35,6.794,6.649,18.218-3.7,22.045-5.021,1.856-12.783-3.507-7.559-13.288,3.811-7.134,4.853-18.754-4.39-26.844-6.677-5.844-6.761-12.52-6.293-15.777A.569.569,0,0,0,152.649.21c-3.2,3.851-5.45,9.661-1.6,17.469,7.681,15.563-1.737,21.579-7.258,16.726-5.158-4.534.906-8.059-2.575-15.445a.569.569,0,0,0-1.084.218c-.094,2.051-1.063,5.013-4.768,8.318C131.1,31.3,129.81,38.257,133.484,42.7c0,0,6.982,8.4,3.338,12.041-3.172,3.172-9.774,2.729-12.1-3.743a.567.567,0,0,0-1.093.1,31.366,31.366,0,0,1-3.914,10.568C115.44,68.839,119.179,74.052,125.381,79.283Z" transform="translate(-117.882 0.001)" fill="#ffdd40"/>
    </g>
    <path id="Path_31724" data-name="Path 31724" d="M331.807,46.193a14.64,14.64,0,0,1-2.151-9.933.5.5,0,0,0-.879-.381A12.8,12.8,0,0,0,326.4,48.821a3.027,3.027,0,1,0,5.4-2.627Z" transform="translate(-232.378 -26.366)" fill="#ffdd40"/>
    <path id="Path_31725" data-name="Path 31725" d="M122.106,124.875a12.744,12.744,0,0,0,1.872-8.647.433.433,0,0,1,.766-.332,11.143,11.143,0,0,1,2.066,11.266,2.635,2.635,0,1,1-4.7-2.287Z" transform="translate(-81.759 -85.487)" fill="#ffc839"/>
    <path id="Path_31726" data-name="Path 31726" d="M153.982,109.192l-4.259-13.081c-4.092-1.668-1.745-7.411-1.745-7.411a6.214,6.214,0,0,1-4.182-1.638c-5.158-4.534.906-8.059-2.575-15.445a.569.569,0,0,0-1.084.218c-.094,2.051-1.063,5.013-4.768,8.318-4.27,3.808-5.558,10.762-1.884,15.208,0,0,6.982,8.4,3.338,12.041-3.172,3.172-9.774,2.729-12.1-3.743a.567.567,0,0,0-1.092.1,31.366,31.366,0,0,1-3.914,10.568c-4.278,7.172-.539,12.386,5.662,17.616a6.449,6.449,0,0,1,1.919,2.6h26.681Z" transform="translate(-78.949 -52.656)" fill="#ffc839"/>
    <path id="Path_31727" data-name="Path 31727" d="M191.058,198.283h34.907c2.183-4.87,1.439-10.556-1.224-12.877a13.284,13.284,0,0,1-4.094-5.644.367.367,0,0,0-.708.046c-.869,4.375,4.282,11.732-2.386,14.2-3.234,1.195-8.232-2.258-4.868-8.557,2.454-4.594,3.125-12.077-2.827-17.287A11.12,11.12,0,0,1,205.807,158a.366.366,0,0,0-.647-.281c-2.06,2.48-3.51,6.222-1.028,11.25,4.947,10.023-1.119,13.9-4.674,10.771-3.321-2.92.584-5.19-1.658-9.947a.367.367,0,0,0-.7.141c-.061,1.321-.685,3.229-3.071,5.356-2.75,2.452-3.579,6.93-1.214,9.794,0,0,4.252,4.809.031,9.03A5.245,5.245,0,0,0,191.058,198.283Z" transform="translate(-132.99 -116.397)" fill="#ffb332"/>
    <path id="Path_31728" data-name="Path 31728" d="M204.457,223.049c-3.92-3.921-.823-8.7-.823-8.7a3.742,3.742,0,0,1-4.178-.7c-3.321-2.92.584-5.19-1.658-9.946a.367.367,0,0,0-.7.141c-.061,1.321-.685,3.229-3.071,5.356-2.75,2.452-3.579,6.93-1.214,9.794,0,0,4.252,4.809.031,9.03a5.245,5.245,0,0,0-1.79,4.169h13.686C205.863,229.593,206.959,225.55,204.457,223.049Z" transform="translate(-132.988 -150.308)" fill="#ff9100"/>
    <path id="Path_31729" data-name="Path 31729" d="M177.927,311.552H102.221a3.176,3.176,0,0,0-3.167,3.167v16.924a3.176,3.176,0,0,1,3.167-3.167h75.706a3.176,3.176,0,0,1,3.167,3.167V314.719A3.176,3.176,0,0,0,177.927,311.552Z" transform="translate(-65.041 -230.124)" fill="#2ab663"/>
    <path id="Path_31730" data-name="Path 31730" d="M136.986,311.552H102.221a3.176,3.176,0,0,0-3.167,3.167v16.924a3.176,3.176,0,0,1,3.167-3.167h34.547c.129-.245.218-.384.218-.384a5.912,5.912,0,0,1,0-6.7C131.98,316.383,136.986,311.552,136.986,311.552Z" transform="translate(-65.041 -230.124)" fill="#1ba552"/>
    <path id="Path_31731" data-name="Path 31731" d="M233.932,355.266a13.53,13.53,0,0,0-24.17,0Z" transform="translate(-146.814 -256.913)" fill="#50dd89"/>
    <path id="Path_31732" data-name="Path 31732" d="M218.759,349.189a13.593,13.593,0,0,0-9,7.088h8.778c.129-.245.218-.385.218-.385A5.911,5.911,0,0,1,218.759,349.189Z" transform="translate(-146.814 -257.924)" fill="#38c674"/>
    <path id="Path_31733" data-name="Path 31733" d="M363.036,311.552H349.751A14.949,14.949,0,0,0,366.2,328V314.719A3.177,3.177,0,0,0,363.036,311.552Z" transform="translate(-250.15 -230.124)" fill="#38c674"/>
    <path id="Path_31734" data-name="Path 31734" d="M102.22,311.552h13.286A14.949,14.949,0,0,1,99.053,328V314.719A3.176,3.176,0,0,1,102.22,311.552Z" transform="translate(-65.041 -230.124)" fill="#2ab663"/>
    <path id="Path_31735" data-name="Path 31735" d="M177.927,374.836H102.221A3.176,3.176,0,0,0,99.054,378V395.82a64.027,64.027,0,0,0,82.04,0V378A3.176,3.176,0,0,0,177.927,374.836Z" transform="translate(-65.041 -276.868)" fill="#38c674"/>
    <path id="Path_31736" data-name="Path 31736" d="M140.074,408.617,140.5,406s6.273-4.835-.421-8.143,0-7.473,0-7.473v-3.289a2,2,0,0,1-1.147-2.729c-5.751-3.6-1.941-9.528-1.941-9.528H102.221A3.176,3.176,0,0,0,99.054,378V395.82a63.765,63.765,0,0,0,40.444,14.86A2.092,2.092,0,0,1,140.074,408.617Z" transform="translate(-65.041 -276.868)" fill="#2ab663"/>
    <g id="Group_14996" data-name="Group 14996" transform="translate(61.493 97.968)">
      <path id="Path_31737" data-name="Path 31737" d="M217.735,411.1a13.538,13.538,0,0,0-4.818,26.191q2.386.178,4.818.18t4.818-.18a13.538,13.538,0,0,0-4.818-26.191Z" transform="translate(-204.195 -401.625)" fill="#50dd89"/>
      <path id="Path_31738" data-name="Path 31738" d="M217.735,424.791c-6.694-3.308,0-7.474,0-7.474v-3.289a1.993,1.993,0,0,1-1.149-2.726,13.536,13.536,0,0,0-3.67,26.139q2.1.157,4.242.174a2.092,2.092,0,0,1,.576-2.063l.421-2.619S224.429,428.1,217.735,424.791Z" transform="translate(-204.195 -401.772)" fill="#50dd89"/>
      <path id="Path_31739" data-name="Path 31739" d="M363.036,374.836H349.751A14.949,14.949,0,0,0,366.2,391.289V378A3.177,3.177,0,0,0,363.036,374.836Z" transform="translate(-311.643 -374.836)" fill="#50dd89"/>
    </g>
    <path id="Path_31740" data-name="Path 31740" d="M102.22,374.836h13.286a14.949,14.949,0,0,1-16.453,16.453V378A3.176,3.176,0,0,1,102.22,374.836Z" transform="translate(-65.041 -276.868)" fill="#38c674"/>
    <path id="Path_31741" data-name="Path 31741" d="M330.465,455.582h-1.494a1.915,1.915,0,1,0,0,3.829h1.494a1.915,1.915,0,1,0,0-3.829Z" transform="translate(-233.452 -336.51)" fill="#50dd89"/>
    <path id="Path_31742" data-name="Path 31742" d="M167.352,455.582h-1.494a1.915,1.915,0,1,0,0,3.829h1.494a1.915,1.915,0,1,0,0-3.829Z" transform="translate(-112.971 -336.51)" fill="#50dd89"/>
    <path id="Path_31743" data-name="Path 31743" d="M217.735,424.791c-6.694-3.308,0-7.474,0-7.474v-3.289a1.993,1.993,0,0,1-1.149-2.726,13.536,13.536,0,0,0-3.679,26.135q2.108.157,4.251.177a2.092,2.092,0,0,1,.576-2.062l.421-2.619S224.429,428.1,217.735,424.791Z" transform="translate(-142.702 -303.804)" fill="#38c674"/>
    <path id="Path_31744" data-name="Path 31744" d="M242.452,431.229c-1.345-.476-1.423-.568-2.862-1.076a1.161,1.161,0,0,1-.88-1.4,1.685,1.685,0,0,1,1.686-1.432,3.225,3.225,0,0,1,2.384.615,1.915,1.915,0,0,0,2.1-3.2,6.792,6.792,0,0,0-2.579-1.11,1.914,1.914,0,0,0-3.828.025v.194a5.536,5.536,0,0,0-3.535,4.279,4.982,4.982,0,0,0,3.381,5.642c1.352.478,1.42.567,2.862,1.076a1.16,1.16,0,0,1,.88,1.4,1.686,1.686,0,0,1-1.686,1.432,3.217,3.217,0,0,1-2.383-.615,1.915,1.915,0,1,0-2.1,3.2,6.792,6.792,0,0,0,2.579,1.11,1.914,1.914,0,0,0,3.828-.024v-.194a5.536,5.536,0,0,0,3.535-4.279,4.982,4.982,0,0,0-3.38-5.643Z" transform="translate(-165.35 -311.508)" fill="#e8f4fc"/>
  </g>
</svg>
