<svg id="arrow-fat-lines-up-fill" xmlns="http://www.w3.org/2000/svg" width="13" height="13" viewBox="0 0 13 13">
  <g id="Group_26292" data-name="Group 26292">
    <path id="Path_73530" data-name="Path 73530" d="M0,0H13V13H0Z" fill="none"/>
    <path id="Path_73531" data-name="Path 73531" d="M34.531,21.437a.406.406,0,0,1-.375.251H32.124v1.219a.406.406,0,0,1-.406.406H26.843a.406.406,0,0,1-.406-.406V21.688H24.406a.406.406,0,0,1-.287-.694l4.875-4.875a.406.406,0,0,1,.575,0l4.875,4.875A.406.406,0,0,1,34.531,21.437Zm-2.813,4.313H26.843a.406.406,0,0,0,0,.813h4.875a.406.406,0,0,0,0-.812Zm0-1.625H26.843a.406.406,0,0,0,0,.813h4.875a.406.406,0,0,0,0-.812Z" transform="translate(-22.781 -15.188)" fill="#f9d921"/>
  </g>
</svg>
