<svg id="icons_Weight_Line" data-name="icons/Weight/Line" xmlns="http://www.w3.org/2000/svg" width="36" height="46" viewBox="0 0 36 46">
  <path id="Shape" d="M18,36A18,18,0,1,1,36,18,18.02,18.02,0,0,1,18,36ZM18,4A14,14,0,1,0,32,18,14.016,14.016,0,0,0,18,4Z" transform="translate(0 10)" fill="#fcfcfd"/>
  <path id="Shape-2" data-name="Shape" d="M4.433,9.789l1.658,3.317a2,2,0,0,1-3.578,1.789L.855,11.578A8,8,0,0,1,8.01,0H20.594a8,8,0,0,1,7.155,11.578l-1.658,3.317a2,2,0,1,1-3.578-1.789l1.658-3.317A4,4,0,0,0,20.594,4H8.01A4,4,0,0,0,4.433,9.789Z" transform="translate(3.698)" fill="#fcfcfd"/>
</svg>
