<svg id="icons_Weight_Line" data-name="icons/Weight/Line" xmlns="http://www.w3.org/2000/svg" width="40" height="40" viewBox="0 0 40 40">
  <path id="Shape" d="M20,40A20,20,0,1,1,40,20,20.022,20.022,0,0,1,20,40ZM20,4A16,16,0,1,0,36,20,16.018,16.018,0,0,0,20,4Z" fill="#fcfcfd"/>
  <path id="Shape-2" data-name="Shape" d="M27,32h0a20.185,20.185,0,0,1-5.821-6.914,20.035,20.035,0,0,1,0-18.172A20.184,20.184,0,0,1,27,0a20.3,20.3,0,0,1,3,2.772,16,16,0,0,0,0,26.46A20.184,20.184,0,0,1,27,32ZM3,32H3a20.094,20.094,0,0,1-3-2.769A16,16,0,0,0,7,16,16,16,0,0,0,0,2.772,20.2,20.2,0,0,1,3,0,20.182,20.182,0,0,1,8.821,6.916,19.785,19.785,0,0,1,11,16a19.78,19.78,0,0,1-2.179,9.086A20.185,20.185,0,0,1,3,32Z" transform="translate(5.001 3.999)" fill="#fcfcfd"/>
</svg>
